USFL
nRows=123
nColumns=2
inDegrees=yes
endheader
time	soleus_r	
2.79133	 36.700065	
2.8629	 36.738926	
2.93448	 36.773420	
3.00605	 36.717149	
3.07762	 36.815608	
3.14919	 36.882356	
3.22077	 36.884934	
3.29234	 36.799065	
3.36391	 36.654648	
3.43548	 36.557981	
3.50706	 36.571869	
3.57863	 36.640474	
3.6502	 36.832858	
3.72177	 36.713736	
3.79335	 36.589576	
3.86492	 36.606950	
3.93649	 36.488076	
4.00806	 36.648670	
4.07964	 36.464944	
4.15121	 36.528167	
4.22278	 36.597870	
4.29435	 36.364093	
4.36593	 36.291555	
4.4375	 36.383194	
4.50907	 36.265173	
4.58065	 36.318651	
4.65222	 36.379123	
4.72379	 36.364551	
4.79536	 36.590234	
4.86694	 36.347346	
4.93851	 36.345478	
5.01008	 36.259851	
5.08165	 36.396443	
5.15323	 36.379822	
5.2248	 36.280637	
5.29637	 35.792128	
5.36794	 35.592410	
5.43952	 36.202572	
5.51109	 35.670619	
5.58266	 36.259654	
5.65423	 30.454821	
5.72581	 29.609580	
5.79738	 28.704078	
5.86895	 30.608100	
5.94052	 32.420173	
6.0121	 31.441358	
6.08367	 35.226962	
6.15524	 27.718186	
6.22681	 24.559799	
6.29839	 25.009850	
6.36996	 27.910521	
6.44153	 25.832529	
6.5131	 27.296488	
6.58468	 25.640349	
6.65625	 24.894959	
6.72782	 22.738566	
6.7994	 23.259646	
6.87097	 24.103068	
6.94254	 25.486946	
7.01411	 25.486946	
7.08569	 22.022655	
7.15726	 24.898787	
7.22883	 24.344344	
7.3004	 24.069902	
7.37198	 24.440131	
7.44355	 22.383723	
7.51512	 22.097068	
7.58669	 22.436851	
7.65827	 23.994531	
7.72984	 23.331707	
7.80141	 23.354393	
7.87298	 22.860180	
7.94456	 21.943097	
8.01613	 23.105240	
8.0877	 23.410156	
8.15927	 24.461180	
8.23085	 26.899740	
8.30242	 22.243279	
8.37399	 25.020297	
8.44556	 23.392719	
8.51714	 22.322396	
8.58871	 23.003461	
8.66028	 22.352273	
8.73185	 22.137058	
8.80343	 22.335126	
8.875	 26.491167	
8.94657	 24.913323	
9.01815	 26.631204	
9.08972	 23.974400	
9.16129	 23.974400	
9.23286	 24.425021	
9.30444	 23.499057	
9.37601	 26.923342	
9.44758	 27.435599	
9.51915	 23.919801	
9.59073	 24.540464	
9.6623	 24.307825	
9.73387	 24.932993	
9.80544	 25.298141	
9.87702	 24.858030	
9.94859	 27.020691	
10.0202	 25.541226	
10.0917	 25.379789	
10.1633	 24.430690	
10.2349	 25.361013	
10.3065	 25.102055	
10.378	 23.001695	
10.4496	 22.467704	
10.5212	 22.555962	
10.5927	 22.484037	
10.6643	 22.209269	
10.7359	 22.279847	
10.8075	 23.984679	
10.879	 25.094960	
10.9506	 24.802798	
11.0222	 25.297839	
11.0937	 25.383965	
11.1653	 25.936941	
11.2369	 25.336871	
11.3085	 26.566531	
11.38	 26.667074	
11.4516	 27.012004	
11.5232	 28.301771	
